<mxfile host="app.diagrams.net" modified="2024-03-21T02:24:52.273Z" agent="Mozilla/5.0 (Windows NT 10.0; Win64; x64; rv:123.0) Gecko/20100101 Firefox/123.0" etag="p_ItcRO2-RAZRuOAnjtm" version="24.0.7" type="github">
  <diagram name="Page-1" id="5f0bae14-7c28-e335-631c-24af17079c00">
    <mxGraphModel dx="1059" dy="563" grid="1" gridSize="10" guides="1" tooltips="1" connect="1" arrows="1" fold="1" page="1" pageScale="1" pageWidth="1100" pageHeight="850" background="none" math="0" shadow="0">
      <root>
        <mxCell id="0" />
        <mxCell id="1" parent="0" />
        <mxCell id="DLwNo6UtiTYIvXjJcbHC-93" value="Operador" style="verticalAlign=top;align=left;spacingTop=8;spacingLeft=2;spacingRight=12;shape=cube;size=10;direction=south;fontStyle=4;html=1;whiteSpace=wrap;" vertex="1" parent="1">
          <mxGeometry x="965" y="75" width="615" height="700" as="geometry" />
        </mxCell>
        <mxCell id="DLwNo6UtiTYIvXjJcbHC-2" value="App Móvil Capitán" style="verticalAlign=top;align=left;spacingTop=8;spacingLeft=2;spacingRight=12;shape=cube;size=10;direction=south;fontStyle=4;html=1;whiteSpace=wrap;" vertex="1" parent="1">
          <mxGeometry x="50" y="78" width="270" height="700" as="geometry" />
        </mxCell>
        <mxCell id="DLwNo6UtiTYIvXjJcbHC-6" value="Presentación" style="text;html=1;align=center;verticalAlign=middle;resizable=0;points=[];autosize=1;strokeColor=none;fillColor=none;rotation=90;" vertex="1" parent="1">
          <mxGeometry x="-5" y="148" width="90" height="30" as="geometry" />
        </mxCell>
        <mxCell id="DLwNo6UtiTYIvXjJcbHC-7" value="Lógica" style="text;html=1;align=center;verticalAlign=middle;resizable=0;points=[];autosize=1;strokeColor=none;fillColor=none;rotation=90;" vertex="1" parent="1">
          <mxGeometry x="10" y="280" width="60" height="30" as="geometry" />
        </mxCell>
        <mxCell id="DLwNo6UtiTYIvXjJcbHC-8" value="Cifrado" style="text;html=1;align=center;verticalAlign=middle;resizable=0;points=[];autosize=1;strokeColor=none;fillColor=none;rotation=90;" vertex="1" parent="1">
          <mxGeometry x="10" y="590" width="60" height="30" as="geometry" />
        </mxCell>
        <mxCell id="DLwNo6UtiTYIvXjJcbHC-9" value="Fisica" style="text;html=1;align=center;verticalAlign=middle;resizable=0;points=[];autosize=1;strokeColor=none;fillColor=none;rotation=90;" vertex="1" parent="1">
          <mxGeometry x="15" y="680" width="50" height="30" as="geometry" />
        </mxCell>
        <mxCell id="DLwNo6UtiTYIvXjJcbHC-25" style="edgeStyle=orthogonalEdgeStyle;rounded=0;orthogonalLoop=1;jettySize=auto;html=1;exitX=0;exitY=0;exitDx=0;exitDy=15;exitPerimeter=0;entryX=0;entryY=0;entryDx=0;entryDy=15;entryPerimeter=0;" edge="1" parent="1" source="DLwNo6UtiTYIvXjJcbHC-12" target="DLwNo6UtiTYIvXjJcbHC-13">
          <mxGeometry relative="1" as="geometry">
            <mxPoint x="169.93" y="163.97" as="sourcePoint" />
            <mxPoint x="159.93" y="278.97" as="targetPoint" />
            <Array as="points">
              <mxPoint x="120" y="153" />
              <mxPoint x="120" y="265" />
            </Array>
          </mxGeometry>
        </mxCell>
        <mxCell id="DLwNo6UtiTYIvXjJcbHC-12" value="&lt;div&gt;Interfaz &lt;br&gt;&lt;/div&gt;&lt;div&gt;Usuario&lt;br&gt;&lt;/div&gt;" style="shape=module;align=left;spacingLeft=20;align=center;verticalAlign=top;whiteSpace=wrap;html=1;" vertex="1" parent="1">
          <mxGeometry x="190" y="138" width="100" height="50" as="geometry" />
        </mxCell>
        <mxCell id="DLwNo6UtiTYIvXjJcbHC-13" value="&lt;div&gt;Módulo Consulta&lt;br&gt;&lt;/div&gt;&lt;div&gt;Predicción&lt;br&gt;&lt;/div&gt;" style="shape=module;align=left;spacingLeft=20;align=center;verticalAlign=top;whiteSpace=wrap;html=1;" vertex="1" parent="1">
          <mxGeometry x="180" y="250" width="120" height="50" as="geometry" />
        </mxCell>
        <mxCell id="DLwNo6UtiTYIvXjJcbHC-38" style="edgeStyle=orthogonalEdgeStyle;rounded=0;orthogonalLoop=1;jettySize=auto;html=1;exitX=0;exitY=0;exitDx=0;exitDy=35;exitPerimeter=0;entryX=0;entryY=0;entryDx=0;entryDy=15;entryPerimeter=0;" edge="1" parent="1" source="DLwNo6UtiTYIvXjJcbHC-15" target="DLwNo6UtiTYIvXjJcbHC-16">
          <mxGeometry relative="1" as="geometry" />
        </mxCell>
        <mxCell id="DLwNo6UtiTYIvXjJcbHC-15" value="&lt;div&gt;Módulo&lt;/div&gt;&lt;div&gt;Recomendación &lt;br&gt;&lt;/div&gt;&lt;div&gt;Usuario&lt;br&gt;&lt;/div&gt;" style="shape=module;align=left;spacingLeft=20;align=center;verticalAlign=top;whiteSpace=wrap;html=1;" vertex="1" parent="1">
          <mxGeometry x="180" y="330" width="120" height="50" as="geometry" />
        </mxCell>
        <mxCell id="DLwNo6UtiTYIvXjJcbHC-23" value="GPS" style="shape=module;align=left;spacingLeft=20;align=center;verticalAlign=top;whiteSpace=wrap;html=1;" vertex="1" parent="1">
          <mxGeometry x="160" y="690" width="60" height="40" as="geometry" />
        </mxCell>
        <mxCell id="DLwNo6UtiTYIvXjJcbHC-32" style="edgeStyle=orthogonalEdgeStyle;rounded=0;orthogonalLoop=1;jettySize=auto;html=1;exitX=0;exitY=0;exitDx=0;exitDy=15;exitPerimeter=0;entryX=0;entryY=0;entryDx=0;entryDy=15;entryPerimeter=0;" edge="1" parent="1" source="DLwNo6UtiTYIvXjJcbHC-12" target="DLwNo6UtiTYIvXjJcbHC-15">
          <mxGeometry relative="1" as="geometry">
            <mxPoint x="200" y="163" as="sourcePoint" />
            <mxPoint x="190" y="275" as="targetPoint" />
            <Array as="points">
              <mxPoint x="120" y="153" />
              <mxPoint x="120" y="344" />
              <mxPoint x="180" y="344" />
            </Array>
          </mxGeometry>
        </mxCell>
        <mxCell id="DLwNo6UtiTYIvXjJcbHC-33" style="edgeStyle=orthogonalEdgeStyle;rounded=0;orthogonalLoop=1;jettySize=auto;html=1;exitX=0;exitY=0;exitDx=0;exitDy=35;exitPerimeter=0;entryX=0;entryY=0;entryDx=0;entryDy=35;entryPerimeter=0;" edge="1" parent="1" source="DLwNo6UtiTYIvXjJcbHC-13" target="DLwNo6UtiTYIvXjJcbHC-12">
          <mxGeometry relative="1" as="geometry" />
        </mxCell>
        <mxCell id="DLwNo6UtiTYIvXjJcbHC-34" style="edgeStyle=orthogonalEdgeStyle;rounded=0;orthogonalLoop=1;jettySize=auto;html=1;exitX=0;exitY=0;exitDx=0;exitDy=35;exitPerimeter=0;entryX=0;entryY=0;entryDx=0;entryDy=35;entryPerimeter=0;" edge="1" parent="1" source="DLwNo6UtiTYIvXjJcbHC-15" target="DLwNo6UtiTYIvXjJcbHC-12">
          <mxGeometry relative="1" as="geometry" />
        </mxCell>
        <mxCell id="DLwNo6UtiTYIvXjJcbHC-56" value="" style="edgeStyle=orthogonalEdgeStyle;rounded=0;orthogonalLoop=1;jettySize=auto;html=1;exitX=0;exitY=0;exitDx=0;exitDy=15;exitPerimeter=0;entryX=0;entryY=0;entryDx=0;entryDy=35;entryPerimeter=0;" edge="1" parent="1" source="DLwNo6UtiTYIvXjJcbHC-23" target="DLwNo6UtiTYIvXjJcbHC-16">
          <mxGeometry relative="1" as="geometry">
            <mxPoint x="290" y="620" as="targetPoint" />
            <mxPoint x="160" y="705" as="sourcePoint" />
            <Array as="points">
              <mxPoint x="140" y="705" />
              <mxPoint x="140" y="625" />
            </Array>
          </mxGeometry>
        </mxCell>
        <mxCell id="DLwNo6UtiTYIvXjJcbHC-16" value="&lt;div&gt;Cifrado&lt;/div&gt;&lt;div&gt;descifrado&lt;br&gt;&lt;/div&gt;" style="shape=module;align=left;spacingLeft=20;align=center;verticalAlign=top;whiteSpace=wrap;html=1;" vertex="1" parent="1">
          <mxGeometry x="200" y="590" width="100" height="50" as="geometry" />
        </mxCell>
        <mxCell id="DLwNo6UtiTYIvXjJcbHC-4" value="Sensor" style="verticalAlign=top;align=left;spacingTop=8;spacingLeft=2;spacingRight=12;shape=cube;size=10;direction=south;fontStyle=4;html=1;whiteSpace=wrap;" vertex="1" parent="1">
          <mxGeometry x="330" y="78" width="180" height="700" as="geometry" />
        </mxCell>
        <mxCell id="DLwNo6UtiTYIvXjJcbHC-43" value="" style="group" vertex="1" connectable="0" parent="1">
          <mxGeometry x="360" y="428" width="130" height="290" as="geometry" />
        </mxCell>
        <mxCell id="DLwNo6UtiTYIvXjJcbHC-18" value="IP" style="shape=module;align=left;spacingLeft=20;align=center;verticalAlign=top;whiteSpace=wrap;html=1;" vertex="1" parent="DLwNo6UtiTYIvXjJcbHC-43">
          <mxGeometry x="39.930000000000064" y="250" width="60" height="40" as="geometry" />
        </mxCell>
        <mxCell id="DLwNo6UtiTYIvXjJcbHC-36" style="edgeStyle=orthogonalEdgeStyle;rounded=0;orthogonalLoop=1;jettySize=auto;html=1;exitX=0;exitY=0;exitDx=0;exitDy=15;exitPerimeter=0;entryX=0;entryY=0;entryDx=0;entryDy=35;entryPerimeter=0;" edge="1" parent="DLwNo6UtiTYIvXjJcbHC-43" source="DLwNo6UtiTYIvXjJcbHC-18" target="DLwNo6UtiTYIvXjJcbHC-39">
          <mxGeometry relative="1" as="geometry">
            <mxPoint x="39.930000000000064" y="180" as="targetPoint" />
            <Array as="points">
              <mxPoint y="265" />
              <mxPoint y="165" />
            </Array>
          </mxGeometry>
        </mxCell>
        <mxCell id="DLwNo6UtiTYIvXjJcbHC-39" value="&lt;div&gt;Cifrado&lt;/div&gt;&lt;div&gt;descifrado&lt;br&gt;&lt;/div&gt;" style="shape=module;align=left;spacingLeft=20;align=center;verticalAlign=top;whiteSpace=wrap;html=1;" vertex="1" parent="DLwNo6UtiTYIvXjJcbHC-43">
          <mxGeometry x="30" y="130" width="100" height="50" as="geometry" />
        </mxCell>
        <mxCell id="DLwNo6UtiTYIvXjJcbHC-40" value="&lt;div&gt;Módulo&lt;/div&gt;Controlador de datos" style="shape=module;align=left;spacingLeft=20;align=center;verticalAlign=top;whiteSpace=wrap;html=1;" vertex="1" parent="DLwNo6UtiTYIvXjJcbHC-43">
          <mxGeometry x="9.92999999999995" width="120" height="50" as="geometry" />
        </mxCell>
        <mxCell id="DLwNo6UtiTYIvXjJcbHC-42" style="edgeStyle=orthogonalEdgeStyle;rounded=0;orthogonalLoop=1;jettySize=auto;html=1;exitX=0;exitY=0;exitDx=0;exitDy=15;exitPerimeter=0;entryX=0;entryY=0;entryDx=0;entryDy=15;entryPerimeter=0;" edge="1" parent="DLwNo6UtiTYIvXjJcbHC-43" source="DLwNo6UtiTYIvXjJcbHC-40" target="DLwNo6UtiTYIvXjJcbHC-39">
          <mxGeometry relative="1" as="geometry" />
        </mxCell>
        <mxCell id="DLwNo6UtiTYIvXjJcbHC-58" value="" style="group" vertex="1" connectable="0" parent="1">
          <mxGeometry x="530" y="78" width="200" height="700" as="geometry" />
        </mxCell>
        <mxCell id="DLwNo6UtiTYIvXjJcbHC-5" value="Buque" style="verticalAlign=top;align=left;spacingTop=8;spacingLeft=2;spacingRight=12;shape=cube;size=10;direction=south;fontStyle=4;html=1;whiteSpace=wrap;" vertex="1" parent="DLwNo6UtiTYIvXjJcbHC-58">
          <mxGeometry width="200" height="700" as="geometry" />
        </mxCell>
        <mxCell id="DLwNo6UtiTYIvXjJcbHC-44" value="" style="group" vertex="1" connectable="0" parent="DLwNo6UtiTYIvXjJcbHC-58">
          <mxGeometry x="50" y="350" width="130" height="290" as="geometry" />
        </mxCell>
        <mxCell id="DLwNo6UtiTYIvXjJcbHC-45" value="IP" style="shape=module;align=left;spacingLeft=20;align=center;verticalAlign=top;whiteSpace=wrap;html=1;" vertex="1" parent="DLwNo6UtiTYIvXjJcbHC-44">
          <mxGeometry x="39.930000000000064" y="250" width="60" height="40" as="geometry" />
        </mxCell>
        <mxCell id="DLwNo6UtiTYIvXjJcbHC-46" style="edgeStyle=orthogonalEdgeStyle;rounded=0;orthogonalLoop=1;jettySize=auto;html=1;exitX=0;exitY=0;exitDx=0;exitDy=35;exitPerimeter=0;entryX=0;entryY=0;entryDx=0;entryDy=35;entryPerimeter=0;" edge="1" parent="DLwNo6UtiTYIvXjJcbHC-44" source="DLwNo6UtiTYIvXjJcbHC-45" target="DLwNo6UtiTYIvXjJcbHC-47">
          <mxGeometry relative="1" as="geometry">
            <mxPoint x="39.930000000000064" y="180" as="targetPoint" />
            <Array as="points">
              <mxPoint x="40" y="290" />
              <mxPoint y="290" />
              <mxPoint y="165" />
            </Array>
          </mxGeometry>
        </mxCell>
        <mxCell id="DLwNo6UtiTYIvXjJcbHC-47" value="&lt;div&gt;Cifrado&lt;/div&gt;&lt;div&gt;descifrado&lt;br&gt;&lt;/div&gt;" style="shape=module;align=left;spacingLeft=20;align=center;verticalAlign=top;whiteSpace=wrap;html=1;" vertex="1" parent="DLwNo6UtiTYIvXjJcbHC-44">
          <mxGeometry x="30" y="130" width="100" height="50" as="geometry" />
        </mxCell>
        <mxCell id="DLwNo6UtiTYIvXjJcbHC-48" value="&lt;div&gt;Módulo&lt;/div&gt;Gestor publicaciones" style="shape=module;align=left;spacingLeft=20;align=center;verticalAlign=top;whiteSpace=wrap;html=1;" vertex="1" parent="DLwNo6UtiTYIvXjJcbHC-44">
          <mxGeometry x="9.92999999999995" width="120" height="50" as="geometry" />
        </mxCell>
        <mxCell id="DLwNo6UtiTYIvXjJcbHC-54" style="edgeStyle=orthogonalEdgeStyle;rounded=0;orthogonalLoop=1;jettySize=auto;html=1;exitX=0;exitY=0;exitDx=0;exitDy=15;exitPerimeter=0;entryX=0;entryY=0;entryDx=0;entryDy=35;entryPerimeter=0;" edge="1" parent="DLwNo6UtiTYIvXjJcbHC-44" source="DLwNo6UtiTYIvXjJcbHC-47" target="DLwNo6UtiTYIvXjJcbHC-48">
          <mxGeometry relative="1" as="geometry">
            <Array as="points">
              <mxPoint y="145" />
              <mxPoint y="35" />
            </Array>
          </mxGeometry>
        </mxCell>
        <mxCell id="DLwNo6UtiTYIvXjJcbHC-50" value="&lt;div&gt;Módulo&lt;/div&gt;&lt;div&gt;Gestor&lt;/div&gt;&lt;div&gt;Suvbscripciones&lt;br&gt;&lt;/div&gt;" style="shape=module;align=left;spacingLeft=20;align=center;verticalAlign=top;whiteSpace=wrap;html=1;" vertex="1" parent="DLwNo6UtiTYIvXjJcbHC-58">
          <mxGeometry x="60" y="270" width="120" height="50" as="geometry" />
        </mxCell>
        <mxCell id="DLwNo6UtiTYIvXjJcbHC-51" style="edgeStyle=orthogonalEdgeStyle;rounded=0;orthogonalLoop=1;jettySize=auto;html=1;exitX=0;exitY=0;exitDx=0;exitDy=35;exitPerimeter=0;entryX=0;entryY=0;entryDx=0;entryDy=15;entryPerimeter=0;" edge="1" parent="DLwNo6UtiTYIvXjJcbHC-58" source="DLwNo6UtiTYIvXjJcbHC-50" target="DLwNo6UtiTYIvXjJcbHC-45">
          <mxGeometry relative="1" as="geometry" />
        </mxCell>
        <mxCell id="DLwNo6UtiTYIvXjJcbHC-55" style="edgeStyle=orthogonalEdgeStyle;rounded=0;orthogonalLoop=1;jettySize=auto;html=1;exitX=0;exitY=0;exitDx=0;exitDy=15;exitPerimeter=0;entryX=0;entryY=0;entryDx=0;entryDy=15;entryPerimeter=0;" edge="1" parent="DLwNo6UtiTYIvXjJcbHC-58" source="DLwNo6UtiTYIvXjJcbHC-48" target="DLwNo6UtiTYIvXjJcbHC-50">
          <mxGeometry relative="1" as="geometry">
            <Array as="points">
              <mxPoint x="50" y="365" />
              <mxPoint x="50" y="285" />
            </Array>
          </mxGeometry>
        </mxCell>
        <mxCell id="DLwNo6UtiTYIvXjJcbHC-59" value="" style="group" vertex="1" connectable="0" parent="1">
          <mxGeometry x="750" y="75" width="200" height="700" as="geometry" />
        </mxCell>
        <mxCell id="DLwNo6UtiTYIvXjJcbHC-60" value="Plataforma IA" style="verticalAlign=top;align=left;spacingTop=8;spacingLeft=2;spacingRight=12;shape=cube;size=10;direction=south;fontStyle=4;html=1;whiteSpace=wrap;" vertex="1" parent="DLwNo6UtiTYIvXjJcbHC-59">
          <mxGeometry width="200" height="700" as="geometry" />
        </mxCell>
        <mxCell id="DLwNo6UtiTYIvXjJcbHC-61" value="" style="group" vertex="1" connectable="0" parent="DLwNo6UtiTYIvXjJcbHC-59">
          <mxGeometry x="50" y="350" width="130" height="290" as="geometry" />
        </mxCell>
        <mxCell id="DLwNo6UtiTYIvXjJcbHC-62" value="IP" style="shape=module;align=left;spacingLeft=20;align=center;verticalAlign=top;whiteSpace=wrap;html=1;" vertex="1" parent="DLwNo6UtiTYIvXjJcbHC-61">
          <mxGeometry x="39.930000000000064" y="250" width="60" height="40" as="geometry" />
        </mxCell>
        <mxCell id="DLwNo6UtiTYIvXjJcbHC-63" style="edgeStyle=orthogonalEdgeStyle;rounded=0;orthogonalLoop=1;jettySize=auto;html=1;exitX=0;exitY=0;exitDx=0;exitDy=35;exitPerimeter=0;entryX=0;entryY=0;entryDx=0;entryDy=15;entryPerimeter=0;" edge="1" parent="DLwNo6UtiTYIvXjJcbHC-61" source="DLwNo6UtiTYIvXjJcbHC-62" target="DLwNo6UtiTYIvXjJcbHC-64">
          <mxGeometry relative="1" as="geometry">
            <mxPoint x="39.930000000000064" y="180" as="targetPoint" />
            <Array as="points">
              <mxPoint y="285" />
              <mxPoint y="145" />
            </Array>
          </mxGeometry>
        </mxCell>
        <mxCell id="DLwNo6UtiTYIvXjJcbHC-64" value="&lt;div&gt;Cifrado&lt;/div&gt;&lt;div&gt;descifrado&lt;br&gt;&lt;/div&gt;" style="shape=module;align=left;spacingLeft=20;align=center;verticalAlign=top;whiteSpace=wrap;html=1;" vertex="1" parent="DLwNo6UtiTYIvXjJcbHC-61">
          <mxGeometry x="30" y="130" width="100" height="50" as="geometry" />
        </mxCell>
        <mxCell id="DLwNo6UtiTYIvXjJcbHC-65" value="&lt;div&gt;Módulo&lt;/div&gt;Gestor Predicciones recomendación" style="shape=module;align=left;spacingLeft=20;align=center;verticalAlign=top;whiteSpace=wrap;html=1;" vertex="1" parent="DLwNo6UtiTYIvXjJcbHC-61">
          <mxGeometry x="9.93" width="120" height="70" as="geometry" />
        </mxCell>
        <mxCell id="DLwNo6UtiTYIvXjJcbHC-78" style="edgeStyle=orthogonalEdgeStyle;rounded=0;orthogonalLoop=1;jettySize=auto;html=1;exitX=0;exitY=0;exitDx=0;exitDy=35;exitPerimeter=0;entryX=0;entryY=0;entryDx=0;entryDy=15;entryPerimeter=0;" edge="1" parent="DLwNo6UtiTYIvXjJcbHC-61" source="DLwNo6UtiTYIvXjJcbHC-64" target="DLwNo6UtiTYIvXjJcbHC-62">
          <mxGeometry relative="1" as="geometry" />
        </mxCell>
        <mxCell id="DLwNo6UtiTYIvXjJcbHC-80" style="edgeStyle=orthogonalEdgeStyle;rounded=0;orthogonalLoop=1;jettySize=auto;html=1;exitX=0;exitY=0;exitDx=0;exitDy=35;exitPerimeter=0;entryX=0;entryY=0;entryDx=0;entryDy=15;entryPerimeter=0;" edge="1" parent="DLwNo6UtiTYIvXjJcbHC-61" source="DLwNo6UtiTYIvXjJcbHC-65" target="DLwNo6UtiTYIvXjJcbHC-64">
          <mxGeometry relative="1" as="geometry">
            <Array as="points">
              <mxPoint y="35" />
              <mxPoint y="145" />
            </Array>
          </mxGeometry>
        </mxCell>
        <mxCell id="DLwNo6UtiTYIvXjJcbHC-67" value="&lt;div&gt;Módulo&lt;/div&gt;&lt;div&gt;Recibir&lt;/div&gt;&lt;div&gt;Subscripción&lt;br&gt;&lt;/div&gt;" style="shape=module;align=left;spacingLeft=20;align=center;verticalAlign=top;whiteSpace=wrap;html=1;" vertex="1" parent="DLwNo6UtiTYIvXjJcbHC-59">
          <mxGeometry x="60" y="270" width="120" height="50" as="geometry" />
        </mxCell>
        <mxCell id="DLwNo6UtiTYIvXjJcbHC-79" style="edgeStyle=orthogonalEdgeStyle;rounded=0;orthogonalLoop=1;jettySize=auto;html=1;exitX=0;exitY=0;exitDx=0;exitDy=35;exitPerimeter=0;entryX=0;entryY=0;entryDx=0;entryDy=15;entryPerimeter=0;" edge="1" parent="DLwNo6UtiTYIvXjJcbHC-59" source="DLwNo6UtiTYIvXjJcbHC-64" target="DLwNo6UtiTYIvXjJcbHC-67">
          <mxGeometry relative="1" as="geometry" />
        </mxCell>
        <mxCell id="DLwNo6UtiTYIvXjJcbHC-81" style="edgeStyle=orthogonalEdgeStyle;rounded=0;orthogonalLoop=1;jettySize=auto;html=1;exitX=0;exitY=0;exitDx=0;exitDy=35;exitPerimeter=0;entryX=0;entryY=0;entryDx=0;entryDy=15;entryPerimeter=0;" edge="1" parent="DLwNo6UtiTYIvXjJcbHC-59" source="DLwNo6UtiTYIvXjJcbHC-67" target="DLwNo6UtiTYIvXjJcbHC-65">
          <mxGeometry relative="1" as="geometry">
            <Array as="points">
              <mxPoint x="50" y="305" />
              <mxPoint x="50" y="365" />
            </Array>
          </mxGeometry>
        </mxCell>
        <mxCell id="DLwNo6UtiTYIvXjJcbHC-70" value="IP" style="shape=module;align=left;spacingLeft=20;align=center;verticalAlign=top;whiteSpace=wrap;html=1;" vertex="1" parent="1">
          <mxGeometry x="240.00000000000006" y="690" width="60" height="40" as="geometry" />
        </mxCell>
        <mxCell id="DLwNo6UtiTYIvXjJcbHC-72" style="edgeStyle=orthogonalEdgeStyle;rounded=0;orthogonalLoop=1;jettySize=auto;html=1;exitX=0;exitY=0;exitDx=0;exitDy=15;exitPerimeter=0;entryX=0;entryY=0;entryDx=0;entryDy=35;entryPerimeter=0;" edge="1" parent="1" source="DLwNo6UtiTYIvXjJcbHC-70" target="DLwNo6UtiTYIvXjJcbHC-16">
          <mxGeometry relative="1" as="geometry">
            <Array as="points">
              <mxPoint x="240" y="680" />
              <mxPoint x="180" y="680" />
              <mxPoint x="180" y="625" />
            </Array>
          </mxGeometry>
        </mxCell>
        <mxCell id="DLwNo6UtiTYIvXjJcbHC-84" value="&lt;div&gt;Módulo Recibir contrato&lt;br&gt;&lt;/div&gt;" style="shape=module;align=left;spacingLeft=20;align=center;verticalAlign=top;whiteSpace=wrap;html=1;" vertex="1" parent="1">
          <mxGeometry x="1070" y="280" width="120" height="50" as="geometry" />
        </mxCell>
        <mxCell id="DLwNo6UtiTYIvXjJcbHC-87" value="&lt;div&gt;Módulo&lt;/div&gt;&lt;div&gt;Gestionar &lt;br&gt;&lt;/div&gt;&lt;div&gt;Ruta&lt;br&gt;&lt;/div&gt;" style="shape=module;align=left;spacingLeft=20;align=center;verticalAlign=top;whiteSpace=wrap;html=1;" vertex="1" parent="1">
          <mxGeometry x="1070" y="390" width="120" height="50" as="geometry" />
        </mxCell>
        <mxCell id="DLwNo6UtiTYIvXjJcbHC-89" value="&lt;div&gt;Cifrado&lt;/div&gt;&lt;div&gt;descifrado&lt;br&gt;&lt;/div&gt;" style="shape=module;align=left;spacingLeft=20;align=center;verticalAlign=top;whiteSpace=wrap;html=1;" vertex="1" parent="1">
          <mxGeometry x="1460" y="590" width="100" height="50" as="geometry" />
        </mxCell>
        <mxCell id="DLwNo6UtiTYIvXjJcbHC-92" value="IP" style="shape=module;align=left;spacingLeft=20;align=center;verticalAlign=top;whiteSpace=wrap;html=1;" vertex="1" parent="1">
          <mxGeometry x="1115" y="720" width="60" height="40" as="geometry" />
        </mxCell>
        <mxCell id="DLwNo6UtiTYIvXjJcbHC-95" style="edgeStyle=orthogonalEdgeStyle;rounded=0;orthogonalLoop=1;jettySize=auto;html=1;exitX=0;exitY=0;exitDx=0;exitDy=35;exitPerimeter=0;entryX=0;entryY=0;entryDx=0;entryDy=15;entryPerimeter=0;" edge="1" parent="1" source="DLwNo6UtiTYIvXjJcbHC-92" target="DLwNo6UtiTYIvXjJcbHC-89">
          <mxGeometry relative="1" as="geometry" />
        </mxCell>
        <mxCell id="DLwNo6UtiTYIvXjJcbHC-96" value="&lt;div&gt;Interfaz &lt;br&gt;&lt;/div&gt;&lt;div&gt;Operador&lt;br&gt;&lt;/div&gt;" style="shape=module;align=left;spacingLeft=20;align=center;verticalAlign=top;whiteSpace=wrap;html=1;" vertex="1" parent="1">
          <mxGeometry x="1450" y="120" width="100" height="50" as="geometry" />
        </mxCell>
        <mxCell id="DLwNo6UtiTYIvXjJcbHC-100" style="edgeStyle=orthogonalEdgeStyle;rounded=0;orthogonalLoop=1;jettySize=auto;html=1;exitX=0;exitY=0;exitDx=0;exitDy=35;exitPerimeter=0;entryX=0;entryY=0;entryDx=0;entryDy=15;entryPerimeter=0;" edge="1" parent="1" source="DLwNo6UtiTYIvXjJcbHC-96" target="DLwNo6UtiTYIvXjJcbHC-84">
          <mxGeometry relative="1" as="geometry" />
        </mxCell>
        <mxCell id="DLwNo6UtiTYIvXjJcbHC-101" style="edgeStyle=orthogonalEdgeStyle;rounded=0;orthogonalLoop=1;jettySize=auto;html=1;exitX=0;exitY=0;exitDx=0;exitDy=15;exitPerimeter=0;entryX=0;entryY=0;entryDx=0;entryDy=15;entryPerimeter=0;" edge="1" parent="1" source="DLwNo6UtiTYIvXjJcbHC-96" target="DLwNo6UtiTYIvXjJcbHC-87">
          <mxGeometry relative="1" as="geometry">
            <Array as="points">
              <mxPoint x="1030" y="135" />
              <mxPoint x="1030" y="405" />
            </Array>
          </mxGeometry>
        </mxCell>
        <mxCell id="DLwNo6UtiTYIvXjJcbHC-102" style="edgeStyle=orthogonalEdgeStyle;rounded=0;orthogonalLoop=1;jettySize=auto;html=1;exitX=0;exitY=0;exitDx=0;exitDy=35;exitPerimeter=0;entryX=0;entryY=0;entryDx=0;entryDy=15;entryPerimeter=0;" edge="1" parent="1" source="DLwNo6UtiTYIvXjJcbHC-84" target="DLwNo6UtiTYIvXjJcbHC-87">
          <mxGeometry relative="1" as="geometry" />
        </mxCell>
        <mxCell id="DLwNo6UtiTYIvXjJcbHC-103" style="edgeStyle=orthogonalEdgeStyle;rounded=0;orthogonalLoop=1;jettySize=auto;html=1;exitX=0;exitY=0;exitDx=0;exitDy=35;exitPerimeter=0;entryX=0;entryY=0;entryDx=0;entryDy=35;entryPerimeter=0;" edge="1" parent="1" source="DLwNo6UtiTYIvXjJcbHC-89" target="DLwNo6UtiTYIvXjJcbHC-87">
          <mxGeometry relative="1" as="geometry" />
        </mxCell>
        <mxCell id="DLwNo6UtiTYIvXjJcbHC-104" value="&lt;div&gt;Módulo cumplimiento&lt;/div&gt;&lt;div&gt;normativo&lt;br&gt;&lt;/div&gt;" style="shape=module;align=left;spacingLeft=20;align=center;verticalAlign=top;whiteSpace=wrap;html=1;" vertex="1" parent="1">
          <mxGeometry x="1275" y="280" width="120" height="50" as="geometry" />
        </mxCell>
        <mxCell id="DLwNo6UtiTYIvXjJcbHC-105" value="&lt;div&gt;Módulo gestión&lt;/div&gt;&lt;div&gt;flota&lt;br&gt;&lt;/div&gt;" style="shape=module;align=left;spacingLeft=20;align=center;verticalAlign=top;whiteSpace=wrap;html=1;" vertex="1" parent="1">
          <mxGeometry x="1430" y="280" width="120" height="50" as="geometry" />
        </mxCell>
        <mxCell id="DLwNo6UtiTYIvXjJcbHC-106" style="edgeStyle=orthogonalEdgeStyle;rounded=0;orthogonalLoop=1;jettySize=auto;html=1;exitX=0;exitY=0;exitDx=0;exitDy=35;exitPerimeter=0;entryX=0;entryY=0;entryDx=0;entryDy=15;entryPerimeter=0;" edge="1" parent="1" source="DLwNo6UtiTYIvXjJcbHC-96" target="DLwNo6UtiTYIvXjJcbHC-104">
          <mxGeometry relative="1" as="geometry" />
        </mxCell>
        <mxCell id="DLwNo6UtiTYIvXjJcbHC-107" style="edgeStyle=orthogonalEdgeStyle;rounded=0;orthogonalLoop=1;jettySize=auto;html=1;exitX=0;exitY=0;exitDx=0;exitDy=35;exitPerimeter=0;entryX=0;entryY=0;entryDx=0;entryDy=15;entryPerimeter=0;" edge="1" parent="1" source="DLwNo6UtiTYIvXjJcbHC-96" target="DLwNo6UtiTYIvXjJcbHC-105">
          <mxGeometry relative="1" as="geometry" />
        </mxCell>
        <mxCell id="DLwNo6UtiTYIvXjJcbHC-108" style="edgeStyle=orthogonalEdgeStyle;rounded=0;orthogonalLoop=1;jettySize=auto;html=1;exitX=0;exitY=0;exitDx=0;exitDy=35;exitPerimeter=0;entryX=0;entryY=0;entryDx=0;entryDy=15;entryPerimeter=0;" edge="1" parent="1" source="DLwNo6UtiTYIvXjJcbHC-104" target="DLwNo6UtiTYIvXjJcbHC-89">
          <mxGeometry relative="1" as="geometry" />
        </mxCell>
        <mxCell id="DLwNo6UtiTYIvXjJcbHC-109" style="edgeStyle=orthogonalEdgeStyle;rounded=0;orthogonalLoop=1;jettySize=auto;html=1;exitX=0;exitY=0;exitDx=0;exitDy=35;exitPerimeter=0;entryX=0;entryY=0;entryDx=0;entryDy=15;entryPerimeter=0;" edge="1" parent="1" source="DLwNo6UtiTYIvXjJcbHC-105" target="DLwNo6UtiTYIvXjJcbHC-89">
          <mxGeometry relative="1" as="geometry" />
        </mxCell>
        <mxCell id="DLwNo6UtiTYIvXjJcbHC-10" value="" style="line;strokeWidth=1;fillColor=none;align=left;verticalAlign=middle;spacingTop=-1;spacingLeft=3;spacingRight=3;rotatable=0;labelPosition=right;points=[];portConstraint=eastwest;strokeColor=inherit;" vertex="1" parent="1">
          <mxGeometry x="30" y="550" width="1580" height="8" as="geometry" />
        </mxCell>
        <mxCell id="DLwNo6UtiTYIvXjJcbHC-3" value="" style="line;strokeWidth=1;fillColor=none;align=left;verticalAlign=middle;spacingTop=-1;spacingLeft=3;spacingRight=3;rotatable=0;labelPosition=right;points=[];portConstraint=eastwest;strokeColor=inherit;" vertex="1" parent="1">
          <mxGeometry x="30" y="220" width="1580" height="8" as="geometry" />
        </mxCell>
        <mxCell id="DLwNo6UtiTYIvXjJcbHC-11" value="" style="line;strokeWidth=1;fillColor=none;align=left;verticalAlign=middle;spacingTop=-1;spacingLeft=3;spacingRight=3;rotatable=0;labelPosition=right;points=[];portConstraint=eastwest;strokeColor=inherit;" vertex="1" parent="1">
          <mxGeometry x="30" y="650" width="1580" height="8" as="geometry" />
        </mxCell>
        <mxCell id="DLwNo6UtiTYIvXjJcbHC-110" style="edgeStyle=orthogonalEdgeStyle;rounded=0;orthogonalLoop=1;jettySize=auto;html=1;exitX=0;exitY=0;exitDx=0;exitDy=35;exitPerimeter=0;entryX=0;entryY=0;entryDx=0;entryDy=15;entryPerimeter=0;" edge="1" parent="1" source="DLwNo6UtiTYIvXjJcbHC-89" target="DLwNo6UtiTYIvXjJcbHC-92">
          <mxGeometry relative="1" as="geometry" />
        </mxCell>
      </root>
    </mxGraphModel>
  </diagram>
</mxfile>
